<svg id="Layer_1" data-name="Layer 1" xmlns="http://www.w3.org/2000/svg" viewBox="0 0 1007.28 1007.28"><title>HH</title><path d="M351.54,361.54H22.45a10,10,0,0,1-10-10V22.45a10,10,0,0,1,17.07-7.07L358.61,344.47A10,10,0,0,1,351.54,361.54Zm-319.09-20H327.4L32.45,46.59V341.54Z" transform="translate(-12.45 -12.45)"/><path d="M351.54,690.63H22.45a10,10,0,0,1-10-10V351.54a10,10,0,0,1,17.07-7.07L358.61,673.56A10,10,0,0,1,351.54,690.63Zm-319.09-20H327.4L32.45,375.68V670.63Z" transform="translate(-12.45 -12.45)"/><path d="M351.54,1019.73a10,10,0,0,1-7.07-2.93L15.38,687.7a10,10,0,0,1,7.07-17.07H351.54a10,10,0,0,1,10,10v329.1A10,10,0,0,1,351.54,1019.73Zm-305-329.1,294.95,295v-295H46.59Z" transform="translate(-12.45 -12.45)"/><path d="M351.54,690.63a10,10,0,0,1-7.07-2.93L15.38,358.61a10,10,0,0,1,7.07-17.07H351.54a10,10,0,0,1,10,10V680.63A10,10,0,0,1,351.54,690.63ZM46.59,361.54L341.54,656.49V361.54H46.59Z" transform="translate(-12.45 -12.45)"/><path d="M1009.73,361.54H680.63a10,10,0,0,1-10-10V22.45a10,10,0,0,1,17.07-7.07l329.1,329.09A10,10,0,0,1,1009.73,361.54Zm-319.1-20h295l-295-294.95V341.54Z" transform="translate(-12.45 -12.45)"/><path d="M1009.73,690.63H680.63a10,10,0,0,1-10-10V351.54a10,10,0,0,1,17.07-7.07l329.1,329.09A10,10,0,0,1,1009.73,690.63Zm-319.1-20h295l-295-294.95V670.63Z" transform="translate(-12.45 -12.45)"/><path d="M1009.73,1019.73a10,10,0,0,1-7.07-2.93L673.56,687.7a10,10,0,0,1,7.07-17.07h329.1a10,10,0,0,1,10,10v329.1A10,10,0,0,1,1009.73,1019.73Zm-305-329.1,295,295v-295h-295Z" transform="translate(-12.45 -12.45)"/><path d="M1009.73,690.63a10,10,0,0,1-7.07-2.93L673.56,358.61a10,10,0,0,1,7.07-17.07h329.1a10,10,0,0,1,10,10V680.63A10,10,0,0,1,1009.73,690.63Zm-305-329.09,295,294.95V361.54h-295Z" transform="translate(-12.45 -12.45)"/><path d="M680.63,690.63H351.54a10,10,0,0,1-10-10V351.54a10,10,0,0,1,17.07-7.07L687.7,673.56A10,10,0,0,1,680.63,690.63Zm-319.09-20H656.49L361.54,375.68V670.63Z" transform="translate(-12.45 -12.45)"/><path d="M680.63,690.63a10,10,0,0,1-7.07-2.93L344.47,358.61a10,10,0,0,1,7.07-17.07H680.63a10,10,0,0,1,10,10V680.63A10,10,0,0,1,680.63,690.63ZM375.68,361.54L670.63,656.49V361.54H375.68Z" transform="translate(-12.45 -12.45)"/></svg>