<svg id="Layer_1" data-name="Layer 1" xmlns="http://www.w3.org/2000/svg" viewBox="0 0 156 112"><title>PHHHOTO</title><path d="M146,92a10,10,0,1,0,10,10A10,10,0,0,0,146,92Zm0,16a6,6,0,1,1,6-6A6,6,0,0,1,146,108Z"/><path d="M102,92a10,10,0,1,0,10,10A10,10,0,0,0,102,92Zm0,16a6,6,0,1,1,6-6A6,6,0,0,1,102,108Z"/><path d="M130,92H118a2,2,0,0,0,0,4h4v14a2,2,0,0,0,4,0V96h4A2,2,0,0,0,130,92Z"/><path d="M84,92a2,2,0,0,0-2,2v6H74V94a2,2,0,0,0-4,0v16a2,2,0,0,0,4,0v-6h8v6a2,2,0,0,0,4,0V94A2,2,0,0,0,84,92Z"/><path d="M60,92a2,2,0,0,0-2,2v6H50V94a2,2,0,0,0-4,0v16a2,2,0,0,0,4,0v-6h8v6a2,2,0,0,0,4,0V94A2,2,0,0,0,60,92Z"/><path d="M36,92a2,2,0,0,0-2,2v6H26V94a2,2,0,0,0-4,0v16a2,2,0,0,0,4,0v-6h8v6a2,2,0,0,0,4,0V94A2,2,0,0,0,36,92Z"/><path d="M10,92H2a2,2,0,0,0-2,2v16a2,2,0,0,0,4,0v-6h6A6,6,0,0,0,10,92Zm0,8H4V96h6A2,2,0,0,1,10,100Z"/><path d="M78,0a36,36,0,1,0,36,36A36,36,0,0,0,78,0Zm0,67.7A31.7,31.7,0,1,1,109.7,36,31.71,31.71,0,0,1,78,67.7Z"/><path d="M78,8a28,28,0,1,0,28,28A28,28,0,0,0,78,8Zm0,51.7A23.7,23.7,0,1,1,101.7,36,23.82,23.82,0,0,1,78,59.7Z"/><path d="M78,16A20,20,0,1,0,98,36,20.06,20.06,0,0,0,78,16Zm0,35.7A15.7,15.7,0,1,1,93.7,36,15.73,15.73,0,0,1,78,51.7Z"/><path d="M78,24A12,12,0,1,0,90,36,12,12,0,0,0,78,24Zm0,19.7A7.7,7.7,0,1,1,85.7,36,7.7,7.7,0,0,1,78,43.7Z"/><circle cx="78" cy="36" r="4"/></svg>