<svg id="Layer_1" data-name="Layer 1" xmlns="http://www.w3.org/2000/svg" viewBox="0 0 640.99 329.6"><defs><style>.cls-1{fill:#797979;}</style></defs><title>type_at_cooper</title><path d="M32.6,132l19.6-6L76.8,10.8l-16.2,4-34,46.4-6.4-2L35,2H162.4L157,59.6,150.8,61,134,14.8l-14-4L95.4,126l17.2,6-1.6,7.6H31Z" transform="translate(-2 -2)"/><path d="M135,155.8c0-9.6,7.4-15,15.2-15,7.6,0,13.6,5.2,13.6,12.4,0,6.8-3,11-9.4,12.8v0.4a25.63,25.63,0,0,0,4,.2c4.2,0,8.4-1.2,13.2-3,2-8.8,4.2-25.2,4.2-46.4,0-30.8-2.2-47.2-4-54.4L152,82l-4.8-4.4c24-33.4,32.6-39.8,43.8-39.8s19,8.2,19,41.6a316.91,316.91,0,0,1-4.8,57.8c17-20.8,29.8-49.2,29.8-73l-0.4-.2c-9.4,2.2-15.4-5.4-15.4-13,0-7.4,6-13.2,15-13.2,8.6,0,18.2,6.4,18.2,23.4,0,37-37.4,97.8-75.8,113A55.1,55.1,0,0,1,158,178C147.8,178,135,172,135,155.8Z" transform="translate(-2 -2)"/><path d="M237.6,162.6h14.6l25.2-94.2A215.31,215.31,0,0,0,260.6,82l-4.8-4.4c9.4-11.8,17.2-21.4,26.6-28l8-29.8H323L318,38a54.6,54.6,0,0,1,5.8-.2c26,0,41.4,15.6,41.4,36.8,0,36.6-31.8,66.6-74.6,65.6l-6,22.4H302l-2.8,13H234.8ZM328.2,69c0-11.6-5-15.8-14.2-16.4l-20.2,75.6c15.2-2.4,23.4-9.4,30.8-37.2C327,81.6,328.2,74.6,328.2,69Z" transform="translate(-2 -2)"/><path d="M368.39,110c0-35.2,26.4-72.2,62.6-72.2,20.6,0,31.2,8.4,31.2,19.8,0,15.8-16.2,26.2-53,35-2.2,9.4-3.2,16.2-3.2,20.8,0,7.8,2.8,9.8,7.8,9.8,7,0,15.2-6.6,28-21l5.8,3.6c-12.2,22.8-28.4,35.4-49,35.4C380.6,141.2,368.39,128.8,368.39,110Zm43-25.6c16.2-7.6,22-14.8,22-30.2,0-2.6-1.2-4.6-3.8-4.6-5.2,0-10.8,6-18,33.8A1.82,1.82,0,0,0,411.39,84.4Z" transform="translate(-2 -2)"/><path class="cls-1" d="M462.19,109.2c0-48.8,45-102.4,108.2-102.4,42.2,0,72.6,24.8,72.6,62.6,0,46.4-31,73.6-62.4,73.6-18.2,0-24.2-6.2-26.6-18.4l-0.2-1,13.4-22.8-0.4-.4c-14.4,21-31.2,40.8-46,40.8-9.6,0-18.2-8-18.2-21.8,0-35.4,25.8-75.6,52.4-75.6,9.4,0,14.8,3.6,17.8,7.2l1.6-6h32l-22.8,71.4a22.17,22.17,0,0,0-1.2,6.8c0,4.2,1.8,7,6.6,7,18.6,0,31.2-25.2,31.2-60.4,0-36.6-18.2-51.4-50.4-51.4-48.6,0-82,40.2-82,87.8,0,42.6,18.8,57.4,55.2,57.4,18.2,0,37-4,50.6-8.2l3.2,7.2c-15.2,8.2-34.4,13.8-58.4,13.8C490,176.4,462.19,147,462.19,109.2Zm97-7.8,11.4-42a13.64,13.64,0,0,0-6.6-2.2c-8.4,0-17,9.6-24.4,46.2a35.57,35.57,0,0,0-.6,5.8c0,4.6,1.6,6.2,4.2,6.2C547.79,115.4,553.39,109.8,559.19,101.4Z" transform="translate(-2 -2)"/><path d="M2,233.6c0-46.4,36.2-77.2,75.6-77.2,14.2,0,23.2,3.8,30.4,10.6l6.8-9h7.6l2.2,54.4-6.6,1.4c-19.6-37.4-25.2-43.4-34.8-43.4-15,0-24.2,12.2-32.6,51.8-3,14.2-4.4,25.2-4.4,33.8,0,21.4,8.8,27.4,23,27.4,15.8,0,29.6-7.8,42-22.6l8.4,5.8c-14.2,21.2-31.8,30.6-55.4,30.6C23,297.2,2,268.2,2,233.6Z" transform="translate(-2 -2)"/><path d="M125.8,258c0-36.6,30.8-64.2,61.4-64.2,23.4,0,39.4,18.4,39.4,38.4,0,36.6-31,65-61.6,65C141.6,297.2,125.8,278,125.8,258Zm60.6-14c4.4-15.8,6.4-25.2,6.4-30.8s-2-7-6.2-7c-8.4,0-11.2,5.6-20.6,40.8-4.2,16.2-6.4,25.8-6.4,31.2,0,5.2,2,6.6,6,6.6C174,284.8,176.8,279.6,186.4,244Z" transform="translate(-2 -2)"/><path d="M230,258c0-36.6,30.8-64.2,61.4-64.2,23.4,0,39.4,18.4,39.4,38.4,0,36.6-31,65-61.6,65C245.8,297.2,230,278,230,258Zm60.6-14c4.4-15.8,6.4-25.2,6.4-30.8s-2-7-6.2-7c-8.4,0-11.2,5.6-20.6,40.8-4.2,16.2-6.4,25.8-6.4,31.2,0,5.2,2,6.6,6,6.6C278.2,284.8,281,279.6,290.6,244Z" transform="translate(-2 -2)"/><path d="M315,318.6h14.6l25.2-94.2A215.17,215.17,0,0,0,338,238l-4.8-4.4c9.4-11.8,17.2-21.4,26.6-28l8-29.8h32.6l-5,18.2a54.6,54.6,0,0,1,5.8-.2c26,0,41.4,15.6,41.4,36.8,0,36.6-31.8,66.6-74.6,65.6l-6,22.4h17.4l-2.8,13H312.2Zm90.6-93.6c0-11.6-5-15.8-14.2-16.4l-20.2,75.6c15.2-2.4,23.4-9.4,30.8-37.2C404.39,237.6,405.59,230.6,405.59,225Z" transform="translate(-2 -2)"/><path d="M445.79,266c0-35.2,26.4-72.2,62.6-72.2,20.6,0,31.2,8.4,31.2,19.8,0,15.8-16.2,26.2-53,35-2.2,9.4-3.2,16.2-3.2,20.8,0,7.8,2.8,9.8,7.8,9.8,7,0,15.2-6.6,28-21l5.8,3.6c-12.2,22.8-28.4,35.4-49,35.4C458,297.2,445.79,284.8,445.79,266Zm43-25.6c16.2-7.6,22-14.8,22-30.2,0-2.6-1.2-4.6-3.8-4.6-5.2,0-10.8,6-18,33.8A1.82,1.82,0,0,0,488.79,240.4Z" transform="translate(-2 -2)"/><path d="M557.79,221.2L541.19,238l-4.8-4.4c25.8-34.2,34-39.8,42.4-39.8,7,0,11.6,3,10.8,14.8l-0.4,5.4-15.8,42.8,0.8,0.4c18-39.6,28.4-63.4,47.4-63.4,11,0,17.6,7.8,17.6,17.8,0,10.2-7.8,18-16,18-10.8,0-13.4-6.8-13.8-11.4H609c-7.6,4.8-17.6,18.8-25.2,33l-12,44.4h-34.2Z" transform="translate(-2 -2)"/></svg>